#!OML:ASF H:\Terrain\Patient Classification 1\Takeo\Monday\TakeoMonday.ASF
:FULLY-SPECIFIED
:DEGREES
16
root 9.83551 15.8988 -37.126 0.586615 -10.5179 -5.3374
lowerback 9.83477 1.611 5.97034
upperback 2.6793 2.73063 0.515291
thorax -2.46002 1.33969 -3.13441
lowerneck -14.3029 1.90918 -1.72601
upperneck -4.20183 2.78963 -0.82858
head 1.05507 1.39099 0.173192
rclavicle -1.99033e-014 -1.11319e-014
rhumerus -11.7788 22.1051 -83.5115
rradius 58.8172
rwrist -20.2497
rhand -30.3162 20.6173
rfingers 7.12502
rthumb -3.62281 -9.33164
lclavicle -1.99033e-014 -1.11319e-014
lhumerus -64.2734 36.6564 45.9589
lradius 12.4898
lwrist 3.52592
lhand -24.8289 21.3934
lfingers 7.12502
lthumb 1.6768 51.3665
rfemur 26.7877 7.45607 27.9821
rtibia 7.58968
rfoot -6.96949 -6.02327
rtoes -20.0016
lfemur -39.1127 2.05261 -13.6635
ltibia 39.7561
lfoot -8.6137 17.5035
ltoes -7.46842
17
root 9.84961 15.9192 -36.8508 0.569635 -10.4024 -5.07108
lowerback 9.98517 1.5498 5.6686
upperback 2.17886 2.64251 0.265043
thorax -3.07646 1.26863 -3.23498
lowerneck -14.0847 1.92307 -1.52432
upperneck -3.80943 2.77345 -0.373591
head 1.14362 1.38869 0.282323
rclavicle -4.96962e-015 -5.96354e-016
rhumerus -13.3954 21.8882 -84.4734
rradius 58.4748
rwrist -20.1739
rhand -30.8757 20.8671
rfingers 7.12502
rthumb -4.16313 -9.07197
lclavicle -4.96962e-015 -5.96354e-016
lhumerus -64.1385 35.6817 46.4222
lradius 12.5431
lwrist 4.8232
lhand -24.6505 21.2265
lfingers 7.12502
lthumb 1.84911 51.1982
rfemur 26.3805 7.44943 27.4937
rtibia 9.668
rfoot -4.62532 -5.30989
rtoes -18.8428
lfemur -38.8174 2.15325 -14.1986
ltibia 40.5375
lfoot -7.92848 17.2723
ltoes -6.91078
18
root 9.86239 15.9428 -36.5802 0.45664 -10.0818 -4.39316
lowerback 9.79501 1.40514 4.8527
upperback 1.95876 2.35748 0.0785535
thorax -3.25452 1.1248 -2.93647
lowerneck -14.0914 1.963 -1.79594
upperneck -3.53976 2.86266 0.182127
head 1.22211 1.44765 0.511099
rclavicle 1.53561e-014 9.54166e-015
rhumerus -14.6251 21.924 -85.1263
rradius 57.9948
rwrist -20.2696
rhand -31.1963 21.646
rfingers 7.12502
rthumb -4.47265 -8.28676
lclavicle 1.53561e-014 9.54166e-015
lhumerus -64.1437 35.4567 46.711
lradius 12.4319
lwrist 4.63491
lhand -24.2812 20.7626
lfingers 7.12502
lthumb 2.20579 50.7309
rfemur 25.6827 7.21112 26.6457
rtibia 12.4038
rfoot -3.723 -5.46536
rtoes -12.6062
lfemur -38.5681 2.5279 -15.281
ltibia 41.239
lfoot -7.12413 15.0651
ltoes -7.04251
19
root 9.87225 15.9582 -36.3152 0.409222 -9.66762 -3.94524
lowerback 9.44883 1.26046 4.2397
upperback 1.87243 2.08555 -0.0258531
thorax -3.19433 0.995719 -2.65931
lowerneck -14.437 1.97709 -2.07945
upperneck -3.06909 2.92581 0.653446
head 1.42767 1.49091 0.723973
rclavicle -6.95746e-016 -1.2921e-014
rhumerus -15.7581 21.8311 -85.6312
rradius 57.5688
rwrist -20.2977
rhand -31.3016 22.1429
rfingers 7.12502
rthumb -4.57437 -7.78771
lclavicle -6.95746e-016 -1.2921e-014
lhumerus -63.8924 35.5692 46.9691
lradius 12.2736
lwrist 3.88785
lhand -24.32 20.7153
lfingers 7.12502
lthumb 2.16829 50.6841
rfemur 24.7841 7.35594 26.3995
rtibia 15.485
rfoot -2.49088 -6.51384
rtoes -13.221
lfemur -38.3444 2.69782 -16.0709
ltibia 41.895
lfoot -6.45058 12.6208
ltoes -5.36609
20
root 9.88077 15.9724 -36.056 0.330144 -9.17091 -3.67156
lowerback 9.23976 1.24399 3.86967
upperback 1.79838 2.01419 -0.201068
thorax -3.16751 0.963085 -2.62008
lowerneck -14.7441 1.87063 -1.75454
upperneck -2.61545 2.7389 0.678888
head 1.63935 1.39395 0.676986
rclavicle -2.41026e-014 1.23246e-014
rhumerus -17.0474 21.1664 -86.1209
rradius 57.2638
rwrist -20.3757
rhand -31.3599 20.8381
rfingers 7.12502
rthumb -4.63064 -9.09134
lclavicle -2.41026e-014 1.23246e-014
lhumerus -63.2132 35.6242 47.008
lradius 11.99
lwrist 2.90191
lhand -24.5198 20.7706
lfingers 7.12502
lthumb 1.97533 50.7412
rfemur 23.7392 7.21956 26.2718
rtibia 18.6119
rfoot -0.304583 -7.37153
rtoes -17.3785
lfemur -37.9068 2.46994 -16.622
ltibia 42.5612
lfoot -6.36745 11.5449
ltoes -2.90379
21
root 9.88753 15.9925 -35.8035 0.148293 -8.85829 -3.30822
lowerback 9.39699 1.30872 3.33493
upperback 1.58596 2.05404 -0.325752
thorax -3.48751 0.978246 -2.46299
lowerneck -14.5171 1.70941 -1.90551
upperneck -2.54389 2.53711 1.1236
head 1.62043 1.30735 0.831326
rclavicle -1.48592e-014 2.78299e-015
rhumerus -18.6902 20.3928 -86.6501
rradius 56.9643
rwrist -20.4199
rhand -31.6394 19.2844
rfingers 7.12502
rthumb -4.90059 -10.6389
lclavicle -1.48592e-014 2.78299e-015
lhumerus -62.7696 35.6344 46.9036
lradius 11.6862
lwrist 1.81888
lhand -24.3392 20.7065
lfingers 7.12502
lthumb 2.14973 50.6754
rfemur 22.4509 7.05367 25.883
rtibia 22.0794
rfoot 1.89593 -7.831
rtoes -21.2618
lfemur -37.2074 2.42508 -17.2702
ltibia 43.2428
lfoot -7.12272 11.5994
ltoes -1.92087
22
root 9.89334 16.0195 -35.5566 -0.0819702 -8.68679 -2.70271
lowerback 9.74995 1.39387 2.37721
upperback 1.23938 2.08538 -0.326009
thorax -4.07728 0.991923 -1.94752
lowerneck -13.8548 1.54105 -2.45344
upperneck -2.64192 2.378 1.62259
head 1.46579 1.24465 1.06562
rclavicle 5.92378e-014 5.56597e-015
rhumerus -20.5625 19.9917 -86.9979
rradius 56.542
rwrist -20.4607
rhand -31.8839 20.3403
rfingers 7.12502
rthumb -5.1366 -9.5774
lclavicle 5.92378e-014 5.56597e-015
lhumerus -62.5989 35.5659 47.1274
lradius 11.4833
lwrist 0.784305
lhand -24.0507 20.6609
lfingers 7.12502
lthumb 2.42838 50.6268
rfemur 20.9687 7.11492 25.2312
rtibia 25.8543
rfoot 3.80135 -8.14851
rtoes -22.5688
lfemur -36.3519 2.76157 -18.2134
ltibia 43.7892
lfoot -8.17712 11.5282
ltoes -2.1171
23
root 9.90548 16.0448 -35.3134 -0.254984 -8.39856 -1.9989
lowerback 9.06829 1.40752 1.42457
upperback 1.57604 1.98846 -0.379023
thorax -3.38361 0.96838 -1.42715
lowerneck -13.8043 1.43929 -2.6451
upperneck -2.93064 2.27234 1.65574
head 1.36216 1.19534 1.09934
rclavicle 8.44835e-015 8.34896e-015
rhumerus -21.1261 19.8656 -86.9469
rradius 55.8403
rwrist -20.7577
rhand -31.9782 21.8989
rfingers 7.12502
rthumb -5.22765 -8.01664
lclavicle 8.44835e-015 8.34896e-015
lhumerus -61.3092 36.2622 48.0763
lradius 11.2802
lwrist -0.231509
lhand -24.0816 20.7462
lfingers 7.12502
lthumb 2.39852 50.7125
rfemur 19.3752 7.24895 24.5575
rtibia 29.6897
rfoot 5.44944 -8.52221
rtoes -25.083
lfemur -35.5209 3.11615 -19.2994
ltibia 44.1215
lfoot -8.96758 10.7729
ltoes -1.48741
24
root 9.92576 16.0794 -35.0698 -0.291665 -8.09915 -1.49067
lowerback 9.08541 1.2593 1.11399
upperback 1.30209 1.75069 -0.704229
thorax -3.68461 0.848128 -1.56733
lowerneck -13.7213 1.49551 -2.57211
upperneck -2.41605 2.32433 1.97587
head 1.51542 1.22716 1.19816
rclavicle -2.26615e-014 2.0276e-014
rhumerus -22.6428 19.653 -87.8474
rradius 55.1324
rwrist -20.9927
rhand -32.1691 22.4113
rfingers 7.12502
rthumb -5.41198 -7.49956
lclavicle -2.26615e-014 2.0276e-014
lhumerus -59.8405 35.3892 49.7679
lradius 11.4403
lwrist 0.541682
lhand -24.0842 21.1492
lfingers 7.12502
lthumb 2.39605 51.1155
rfemur 17.5862 7.30999 24.033
rtibia 33.5287
rfoot 7.10641 -8.59279
rtoes -28.3531
lfemur -34.7413 3.23574 -20.1156
ltibia 44.2856
lfoot -9.61164 9.7728
ltoes 0.0698416
